C:\Users\r0593348\3dpredictsim\Results\Batchsim_tmt_linear\Pog_s1_tmt_bCst_d00_k1000_ig24_pas_GRF.mot
nRows=10
nColumns=19

name C:\Users\r0593348\3dpredictsim\Results\Batchsim_tmt_linear\Pog_s1_tmt_bCst_d00_k1000_ig24_pas_GRF.mot
datacolumns 19
datarows 10
range 0.5526998729 0.6521858501
endheader
time 	ground_force_vx	ground_force_vy	ground_force_vz	ground_force_px	ground_force_py	ground_force_pz	1_ground_force_vx	1_ground_force_vy	1_ground_force_vz	1_ground_force_px	1_ground_force_py	1_ground_force_pz	ground_torque_x	ground_torque_y	ground_torque_z	1_ground_torque_x	1_ground_torque_y	1_ground_torque_z
        0.5526998729	       98.7935201954	      490.3594213067	        3.8488310664	        0.3739677095	        0.0000000000	        0.0335831662	      -78.3987579517	       64.2870749212	      -30.0301155408	        0.8581732000	        0.0000000000	       -0.0380895622	        0.0000000000	        0.0000000000	        0.0000000000	        0.0000000000	        0.0000000000	        0.0000000000	
        0.5637538704	       80.3257024967	      408.1844326103	        8.6213642165	        0.3777276935	        0.0000000000	        0.0324812269	     -124.3882078436	      141.9646421671	      -74.9003808547	        0.8657430980	        0.0000000000	       -0.0356859014	        0.0000000000	        0.0000000000	        0.0000000000	        0.0000000000	        0.0000000000	        0.0000000000	
        0.5748078679	       60.7843580388	      318.9173949036	        9.4842883944	        0.3835440682	        0.0000000000	        0.0302811796	      -50.6600761334	      286.0365169432	      -33.7402949267	        0.8717679789	        0.0000000000	       -0.0332265234	        0.0000000000	        0.0000000000	        0.0000000000	        0.0000000000	        0.0000000000	        0.0000000000	
        0.5858618653	       31.3590214351	      213.1024016927	        5.9288579411	        0.3948785123	        0.0000000000	        0.0250160223	      -45.7304023907	      455.5046788359	       -4.0315706552	        0.8760602338	        0.0000000000	       -0.0333745956	        0.0000000000	        0.0000000000	        0.0000000000	        0.0000000000	        0.0000000000	        0.0000000000	
        0.5969158628	       11.0325941596	      139.1044077816	        8.4823713366	        0.4105556245	        0.0000000000	        0.0167566341	      -79.4549550229	      662.9618807973	        7.1511319160	        0.8845956422	        0.0000000000	       -0.0358977689	        0.0000000000	        0.0000000000	        0.0000000000	        0.0000000000	        0.0000000000	        0.0000000000	
        0.6079698602	        1.5205908631	      111.5087818003	       10.2427294519	        0.4100374319	        0.0000000000	        0.0171955727	     -105.3106205152	      805.5781619200	       12.8476793182	        0.8907614703	        0.0000000000	       -0.0376789972	        0.0000000000	        0.0000000000	        0.0000000000	        0.0000000000	        0.0000000000	        0.0000000000	
        0.6190238577	       -2.3119360430	       73.7081208911	        9.4853593404	        0.4105037051	        0.0000000000	        0.0172517340	     -113.9832005227	      862.6554544577	       14.1770657394	        0.8948487945	        0.0000000000	       -0.0387318405	        0.0000000000	        0.0000000000	        0.0000000000	        0.0000000000	        0.0000000000	        0.0000000000	
        0.6300778552	       -8.3333224419	       30.7617107912	        5.4894351963	        0.4101727744	        0.0000000000	        0.0171814835	     -110.7561015470	      863.3858732381	       14.0705916585	        0.8979869709	        0.0000000000	       -0.0393367338	        0.0000000000	        0.0000000000	        0.0000000000	        0.0000000000	        0.0000000000	        0.0000000000	
        0.6411318526	        0.1172850230	       -0.1177412291	       -0.0031140844	        0.0000000000	        0.0000000000	        0.0000000000	     -101.7573484757	      842.6824305493	       14.2396454361	        0.9011160230	        0.0000000000	       -0.0396335747	        0.0000000000	        0.0000000000	        0.0000000000	        0.0000000000	        0.0000000000	        0.0000000000	
        0.6521858501	        0.0001209587	       -0.0000998590	        0.0000067443	        0.0000000000	        0.0000000000	        0.0000000000	      -89.3743277694	      809.1684746583	       14.8858761829	        0.9043750766	        0.0000000000	       -0.0397445461	        0.0000000000	        0.0000000000	        0.0000000000	        0.0000000000	        0.0000000000	        0.0000000000	
